<?xml version="1.0" encoding="utf-8"?>
<!-- Generator: Adobe Illustrator 19.0.0, SVG Export Plug-In . SVG Version: 6.00 Build 0)  -->
<svg xmlns="http://www.w3.org/2000/svg" xmlns:xlink="http://www.w3.org/1999/xlink" version="1.1" id="Layer_1" x="0px" y="0px" viewBox="0 2 98 98" style="enable-background:new 0 2 98 98;" xml:space="preserve" width="512" height="512">
<style type="text/css">
	.st0{fill:url(#SVGID_1_);}
</style>
<linearGradient id="SVGID_1_" gradientUnits="userSpaceOnUse" x1="49" y1="22.2002" x2="49" y2="79.7998">
	<stop offset="0" style="stop-color:#00EFD1"/>
	<stop offset="1" style="stop-color:#00ACEA"/>
</linearGradient>
<path class="st0" d="M85.6,45.4c2.6-2.5,4.2-5.9,4.2-9.7c0-7.4-6.1-13.5-13.5-13.5s-13.5,6.1-13.5,13.5c0,3.8,1.6,7.3,4.1,9.7  c-2,1-3.8,2.4-5.3,4c0.5-1.4,0.8-3,0.8-4.6c0-7.4-6.1-13.5-13.5-13.5c-7.4,0-13.5,6.1-13.5,13.5c0,1.6,0.3,3.2,0.8,4.7  c-1.5-1.6-3.3-3-5.3-4c2.6-2.5,4.2-5.9,4.2-9.7c0-7.4-6.1-13.5-13.5-13.5S8.2,28.3,8.2,35.7c0,3.8,1.6,7.3,4.2,9.7  C6,48.8,1.6,55.5,1.6,63.2v4.5c0,1.7,1.3,3,3,3s3-1.3,3-3v-4.5c0-7.4,5.8-13.5,13.1-14.1c0.3,0,0.7,0.1,1,0.1c0.4,0,0.7,0,1.1-0.1  c5.4,0.4,10.1,3.9,12,9c-3.6,3.6-5.9,8.7-5.9,14.2v4.5c0,1.7,1.3,3,3,3s3-1.3,3-3v-4.5c0-7.4,5.8-13.5,13.1-14c0.3,0,0.7,0,1,0  s0.7,0,1,0c2.9,0.2,5.6,1.3,7.8,3c0.1,0.1,0.2,0.1,0.3,0.2c3.1,2.6,5.1,6.5,5.1,10.8v4.5c0,1.7,1.3,3,3,3s3-1.3,3-3v-4.5  c0-5.6-2.3-10.6-5.9-14.2c2-5,6.7-8.5,12.1-8.9c0.4,0,0.7,0.1,1.1,0.1c0.3,0,0.7,0,1-0.1c7.3,0.5,13.1,6.6,13.1,14.1v4.5  c0,1.7,1.3,3,3,3s3-1.3,3-3v-4.5C96.4,55.5,92,48.8,85.6,45.4z M14.2,35.7c0-4.1,3.4-7.5,7.5-7.5s7.5,3.4,7.5,7.5  c0,3.8-2.9,7-6.6,7.4c-0.3,0-0.6,0-0.9,0c-0.3,0-0.6,0-0.9,0C17.1,42.7,14.2,39.5,14.2,35.7z M49,37.3c4.1,0,7.5,3.4,7.5,7.5  c0,3.8-2.9,7-6.6,7.4c-0.3,0-0.6,0-0.9,0s-0.6,0-0.9,0c-3.7-0.4-6.6-3.6-6.6-7.4C41.5,40.7,44.9,37.3,49,37.3z M68.8,35.7  c0-4.1,3.4-7.5,7.5-7.5s7.5,3.4,7.5,7.5c0,3.8-2.9,7-6.6,7.4c-0.3,0-0.6,0-0.9,0c-0.3,0-0.6,0-0.9,0C71.7,42.7,68.8,39.5,68.8,35.7z  "/>
</svg>
