<?xml version="1.0" encoding="utf-8"?>
<!-- Generator: Adobe Illustrator 19.0.0, SVG Export Plug-In . SVG Version: 6.00 Build 0)  -->
<svg xmlns="http://www.w3.org/2000/svg" xmlns:xlink="http://www.w3.org/1999/xlink" version="1.1" id="Layer_1" x="0px" y="0px" viewBox="0 2 98 98" style="enable-background:new 0 2 98 98;" xml:space="preserve" width="512" height="512">
<style type="text/css">
	.st0{fill:url(#SVGID_1_);}
	.st1{fill:url(#SVGID_2_);}
	.st2{fill:url(#SVGID_3_);}
	.st3{fill:url(#SVGID_4_);}
</style>
<g>
	
		<linearGradient id="SVGID_1_" gradientUnits="userSpaceOnUse" x1="49" y1="90.3333" x2="49" y2="13.2115" gradientTransform="matrix(1 0 0 -1 0 104)">
		<stop offset="0" style="stop-color:#00EFD1"/>
		<stop offset="1" style="stop-color:#00ACEA"/>
	</linearGradient>
	<path class="st0" d="M83.9,28.1H58v-5.7c0-1.7-1.3-3-3-3H42.9c-1.7,0-3,1.3-3,3v5.7H14.1c-3.4,0-6,2.6-6,6v46.5c0,3.4,2.6,6,6,6   h69.8c3.4,0,6-2.6,6-6V34.1C89.9,30.7,87.3,28.1,83.9,28.1z M45.9,25.4H52v9.4h-6.1V25.4z M83.9,80.6H14.1V34.1h25.8v3.7   c0,1.7,1.3,3,3,3H55c1.7,0,3-1.3,3-3v-3.7h25.9V80.6z"/>
	
		<linearGradient id="SVGID_2_" gradientUnits="userSpaceOnUse" x1="64.25" y1="90.3333" x2="64.25" y2="13.2115" gradientTransform="matrix(1 0 0 -1 0 104)">
		<stop offset="0" style="stop-color:#00EFD1"/>
		<stop offset="1" style="stop-color:#00ACEA"/>
	</linearGradient>
	<path class="st1" d="M52,67.2c0,1.7,1.3,3,3,3h18.5c1.7,0,3-1.3,3-3s-1.3-3-3-3H55C53.3,64.2,52,65.5,52,67.2z"/>
	
		<linearGradient id="SVGID_3_" gradientUnits="userSpaceOnUse" x1="59.25" y1="90.3333" x2="59.25" y2="13.2115" gradientTransform="matrix(1 0 0 -1 0 104)">
		<stop offset="0" style="stop-color:#00EFD1"/>
		<stop offset="1" style="stop-color:#00ACEA"/>
	</linearGradient>
	<path class="st2" d="M55,52.4c-1.7,0-3,1.3-3,3s1.3,3,3,3h8.5c1.7,0,3-1.3,3-3s-1.3-3-3-3H55z"/>
	
		<linearGradient id="SVGID_4_" gradientUnits="userSpaceOnUse" x1="32.3" y1="90.3333" x2="32.3" y2="13.2115" gradientTransform="matrix(1 0 0 -1 0 104)">
		<stop offset="0" style="stop-color:#00EFD1"/>
		<stop offset="1" style="stop-color:#00ACEA"/>
	</linearGradient>
	<path class="st3" d="M35.1,57.4c2.8-1.1,4.9-3.9,4.9-7.2c0-4.2-3.5-7.7-7.7-7.7s-7.7,3.5-7.7,7.7c0,3.2,2,6,4.9,7.2   c-5.3,1.3-9.3,6.1-9.3,11.7v2.3c0,1.7,1.3,3,3,3h18.2c1.7,0,3-1.3,3-3v-2.3C44.4,63.4,40.4,58.6,35.1,57.4z M32.3,48.5   c0.9,0,1.7,0.8,1.7,1.7s-0.8,1.7-1.7,1.7c-0.9,0-1.7-0.8-1.7-1.7S31.4,48.5,32.3,48.5z M26.2,68.4c0.3-3,2.9-5.4,6.1-5.4   s5.7,2.4,6.1,5.4H26.2z"/>
</g>
</svg>
