<?xml version="1.0" encoding="utf-8"?>
<!-- Generator: Adobe Illustrator 19.0.0, SVG Export Plug-In . SVG Version: 6.00 Build 0)  -->
<svg xmlns="http://www.w3.org/2000/svg" xmlns:xlink="http://www.w3.org/1999/xlink" version="1.1" id="Layer_1" x="0px" y="0px" viewBox="0 2 98 98" style="enable-background:new 0 2 98 98;" xml:space="preserve" width="512" height="512">
<style type="text/css">
	.st0{fill:url(#SVGID_1_);}
</style>
<linearGradient id="SVGID_1_" gradientUnits="userSpaceOnUse" x1="49" y1="13.3999" x2="49" y2="88.6001">
	<stop offset="0" style="stop-color:#00EFD1"/>
	<stop offset="1" style="stop-color:#00ACEA"/>
</linearGradient>
<path class="st0" d="M85.7,29.8L70.2,14.3c-1.2-1.2-3.1-1.2-4.2,0L17.2,63c-0.4,0.4-0.7,0.9-0.8,1.4l-4.9,20.5  c-0.2,1,0.1,2.1,0.8,2.8c0.6,0.6,1.3,0.9,2.1,0.9c0.2,0,0.5,0,0.7-0.1l20.5-4.9c0.5-0.1,1-0.4,1.4-0.8L85.7,34  C86.9,32.8,86.9,30.9,85.7,29.8z M23.4,65.3l33.2-33.2l3.5,3.5L27,68.8L23.4,65.3z M20.9,71.3l7.8,7.8l-10.3,2.5L20.9,71.3z   M34.7,76.6l-3.6-3.6l33.2-33.2l3.5,3.5L34.7,76.6z M72.2,39.1L60.9,27.8l7.2-7.2l11.3,11.3L72.2,39.1z"/>
</svg>
