<svg height="503pt" viewBox="-99 0 503 503.09957" width="503pt" xmlns="http://www.w3.org/2000/svg" xmlns:xlink="http://www.w3.org/1999/xlink"><linearGradient id="a"><stop offset="0" stop-color="#00efd1"/><stop offset="1" stop-color="#00acea"/></linearGradient><linearGradient id="b" gradientUnits="userSpaceOnUse" x1="152.665165" x2="152.665165" xlink:href="#a" y1="25.292567" y2="461.173567"/><linearGradient id="c" gradientUnits="userSpaceOnUse" x1="99.083165" x2="99.083165" xlink:href="#a" y1="25.292567" y2="461.173567"/><path d="m152.664062 0c-61.726562 0-117.375 37.183594-140.996093 94.210938-23.621094 57.03125-10.566407 122.671874 33.082031 166.320312 21.730469 21.847656 49.609375 36.546875 79.914062 42.140625v30.851563h-13.578124c-3.867188 0-7.421876 2.730468-7.421876 6.601562v114.472656c0 26.789063 21.714844 48.5 48.5 48.5 26.785157 0 48.5-21.710937 48.5-48.5v-114.472656c.058594-1.78125-.628906-3.507812-1.898437-4.757812-1.265625-1.253907-3-1.921876-4.78125-1.84375h-13.320313v-30.851563c55.679688-10.398437 101.019532-50.773437 117.78125-104.878906 16.761719-54.101563 2.183594-113.039063-37.863281-153.09375-28.558593-28.714844-67.417969-44.808594-107.917969-44.699219zm34 454.601562c0 19.054688-15.445312 34.5-34.5 34.5-19.050781 0-34.5-15.445312-34.5-34.5v-13.078124h69zm0-107.078124v80h-69v-80zm-48-14v-28.929688c4.628907.417969 9.296876.628906 14 .636719 4.707032.007812 9.375-.203125 14-.636719v28.929688zm112.015626-82.890626c-34.988282 35.164063-86.097657 48.953126-134.027344 36.152344-47.925782-12.796875-85.359375-50.230468-98.15625-98.15625-12.800782-47.929687.988281-99.042968 36.152344-134.03125 34.988281-35.164062 86.101562-48.953125 134.027343-36.152344 47.925781 12.796876 85.363281 50.230469 98.160157 98.160157 12.796874 47.925781-.988282 99.039062-36.15625 134.027343zm0 0" fill="url(#b)"/><path d="m152.664062 37.816406c-54.765624 0-101.910156 38.6875-112.59375 92.402344-10.6875 53.71875 18.0625 107.5 68.660157 128.460938 50.597656 20.957031 108.957031 3.253906 139.386719-42.28125 30.425781-45.539063 24.449218-106.230469-14.277344-144.957032-21.480469-21.597656-50.710938-33.707031-81.175782-33.625zm71.277344 186.074219c-34.007812 34.003906-87.296875 39.25-127.28125 12.53125-39.980468-26.714844-55.523437-77.957031-37.121094-122.386719 18.402344-44.425781 65.628907-69.667968 112.792969-60.285156 47.164063 9.382812 81.132813 50.777344 81.132813 98.867188.074218 26.746093-10.558594 52.410156-29.523438 71.273437zm0 0" fill="url(#b)"/><path d="m122.257812 86.464844c3.5625-1.507813 5.226563-5.613282 3.722657-9.175782-1.507813-3.5625-5.617188-5.226562-9.175781-3.71875-21.515626 9.066407-37.929688 27.171876-44.855469 49.472657-.757813 2.394531-.179688 5.011719 1.519531 6.859375s4.261719 2.644531 6.710938 2.085937c2.445312-.558593 4.410156-2.382812 5.140624-4.785156 5.699219-18.363281 19.21875-33.273437 36.9375-40.738281zm0 0" fill="url(#c)"/><g fill="url(#b)"><path d="m152.664062 153.375c18.597657 0 33.671876-15.078125 33.671876-33.671875 0-18.597656-15.074219-33.671875-33.671876-33.671875-18.59375 0-33.671874 15.074219-33.671874 33.671875.023437 18.585937 15.085937 33.648437 33.671874 33.671875zm0-53.34375c10.867188 0 19.671876 8.808594 19.671876 19.671875s-8.808594 19.671875-19.671876 19.671875c-10.863281 0-19.671874-8.808594-19.671874-19.671875.011718-10.859375 8.8125-19.660156 19.671874-19.671875zm0 0"/><path d="m178.464844 150.523438c-2.199219-.070313-4.300782.921874-5.640625 2.667968-4.765625 6.324219-12.226563 10.046875-20.144531 10.050782-7.921876.003906-15.386719-3.707032-20.160157-10.027344-1.339843-1.753906-3.4375-2.753906-5.640625-2.691406-17.089844 0-31.199218 13.535156-31.199218 30.625v33.90625c.0625 3.996093 3.207031 7.257812 7.199218 7.46875h99.574219c3.992187-.203126 7.148437-3.46875 7.210937-7.46875v-33.90625c0-17.089844-14.113281-30.625-31.199218-30.625zm17.199218 58h-86v-27.375c.058594-8.214844 5.941407-15.234376 14.019532-16.722657 13.472656 14.78125 35.921875 17.023438 52.050781 5.199219 2.09375-1.46875 4.03125-3.148438 5.785156-5.011719 8.226563 1.375 14.203125 8.574219 14.03125 16.910157h.113281zm0 0"/></g></svg>