<?xml version="1.0"?>
<svg xmlns="http://www.w3.org/2000/svg" xmlns:xlink="http://www.w3.org/1999/xlink" id="Layer_1" data-name="Layer 1" viewBox="0 0 512 512" width="512" height="512"><defs><linearGradient id="linear-gradient" x1="220.139" y1="34" x2="220.139" y2="462.299" gradientUnits="userSpaceOnUse"><stop offset="0" stop-color="#00efd1"/><stop offset="1" stop-color="#00acea"/></linearGradient><linearGradient id="linear-gradient-2" x1="348.746" y1="34" x2="348.746" y2="462.299" xlink:href="#linear-gradient"/><linearGradient id="linear-gradient-3" x1="91.639" y1="34" x2="91.639" y2="462.299" xlink:href="#linear-gradient"/><linearGradient id="linear-gradient-4" x1="255.708" y1="34" x2="255.708" y2="462.299" xlink:href="#linear-gradient"/><linearGradient id="linear-gradient-5" x1="369.159" y1="34" x2="369.159" y2="462.299" xlink:href="#linear-gradient"/></defs><title>Creative Idea tool</title><path d="M220.118,151h.067c28.248,0,51.218-23.254,51.2-51.543A51.512,51.512,0,0,0,220.119,48H220.1a51.5,51.5,0,0,0,.014,103ZM192.366,71.6A39.07,39.07,0,0,1,220.143,60h.016a39.5,39.5,0,0,1,.023,79h-.064a39.548,39.548,0,0,1-27.752-67.4Z" style="fill:url(#linear-gradient)"/><path d="M348.727,116h.712A51,51,0,0,0,400,64.64,51.6,51.6,0,0,0,348.728,13H348.7c-28.248,0-51.219,23.251-51.207,51.544C297.509,92.786,320.487,116,348.727,116Zm.022-91h.019A39.583,39.583,0,0,1,388,64.6a38.885,38.885,0,0,1-11.2,27.7A38.443,38.443,0,0,1,349.368,104h-.641a39.5,39.5,0,0,1,.022-79Z" style="fill:url(#linear-gradient-2)"/><path d="M91.509,116h.026C119.732,116,142,93.451,143,64.774v-.156A51.77,51.77,0,0,0,91.51,13h-.026C63.236,13,40.266,36.251,40.277,64.548,40.293,92.789,63.272,116,91.509,116Zm.022-91h.019a39.585,39.585,0,0,1,39.229,39.5c-.441,22.048-17.671,39.361-39.247,39.361-.007,0-.014.026-.023.026A39.446,39.446,0,0,1,91.531,25Z" style="fill:url(#linear-gradient-3)"/><path d="M433,244.348V203.762C433,163.744,400.9,131,360.875,131H337.79a73.76,73.76,0,0,0-67.984,45.933A72.024,72.024,0,0,0,231.789,166H208.594a72.191,72.191,0,0,0-38.267,11.027C159.088,149.548,132.455,131,102.968,131H79.989C40.028,131,7,163.545,7,203.531v72.331A6.487,6.487,0,0,0,13.415,282H136v29.107A5.929,5.929,0,0,0,142.022,317h100.4a137.219,137.219,0,0,0-8.174,46.365c0,74.532,60.637,135.2,135.169,135.2s135-60.623,135-135.155A134.223,134.223,0,0,0,433,244.348ZM337.79,143h23.075c33.4,0,60.135,27.341,60.135,60.752v34.874a134.24,134.24,0,0,0-51.882-10.377c-23.612,0-45.118,6.092-65.118,16.776V239.01a72.11,72.11,0,0,0-21.045-51.354c-1.061-1.065-2.1-2.114-3.211-3.1A61.944,61.944,0,0,1,337.79,143ZM19,270V203.541C19,170.173,46.633,143,80,143h22.957c25.633,0,48.711,17.023,57.381,41.662-1.011.9-2.017,1.844-2.984,2.808A72.025,72.025,0,0,0,136,238.779V270Zm129,35V238.789A60.865,60.865,0,0,1,208.6,178h23.175a59.929,59.929,0,0,1,42.677,17.97A60.539,60.539,0,0,1,292,239v13.5A137.121,137.121,0,0,0,247.484,305ZM369.415,486.588a123.17,123.17,0,1,1,123.17-123.169A123.308,123.308,0,0,1,369.415,486.588Z" style="fill:url(#linear-gradient-4)"/><path d="M369,264.277A43.683,43.683,0,0,0,325.318,308l.224,96.371a6,6,0,0,0,1.105,3.456l37.458,52.84a6,6,0,0,0,9.79,0l37.458-52.839a6.175,6.175,0,0,0,1.264-3.456L413,308v-.009a43.954,43.954,0,0,0-44-43.715ZM389.812,398l.234-73h10.6l-.169,73Zm-12,0H360.188l-.234-73h18.092Zm-29.858-73,.234,73H337.527l-.169-73ZM369,446.464,343.15,410h51.7ZM400.67,313H337.33l-.012-5.093a31.682,31.682,0,0,1,63.364-.014Z" style="fill:url(#linear-gradient-5)"/></svg>
