<?xml version="1.0" encoding="iso-8859-1"?>
<!-- Generator: Adobe Illustrator 19.0.0, SVG Export Plug-In . SVG Version: 6.00 Build 0)  -->
<svg version="1.1" id="Capa_1" xmlns="http://www.w3.org/2000/svg" xmlns:xlink="http://www.w3.org/1999/xlink" x="0px" y="0px"
	 viewBox="0 0 391.394 391.394" style="enable-background:new 0 0 391.394 391.394;" xml:space="preserve">
<linearGradient id="SVGID_1_" gradientUnits="userSpaceOnUse" x1="-50.8309" y1="550.9083" x2="-50.8309" y2="475.9929" gradientTransform="matrix(5.2245 0 0 -5.2245 461.2626 2878.2144)">
	<stop  offset="0" style="stop-color:#00EFD1"/>
	<stop  offset="1" style="stop-color:#00ACEA"/>
</linearGradient>
<path style="fill:url(#SVGID_1_);" d="M315.975,120.766c-6.269-6.792-14.106-14.629-23.51-19.853l-0.522-0.522
	c-5.224-2.612-10.971-2.09-15.673,1.045c-5.224,3.135-12.016,7.837-6.269,83.069v0.522c0.522,4.18,0,6.792,0,7.837v0.522
	c-3.657,16.718-18.286,25.078-30.302,27.167c-5.747,1.045-25.078,2.612-36.049-15.673c-6.792-11.494-7.314-25.078-2.09-37.616
	c1.045-2.612,2.612-5.225,3.657-7.314c2.612-5.747,5.225-11.494,8.882-16.718c25.078-41.273,20.898-90.906-10.971-136.359
	c-2.612-3.657-6.792-6.269-11.494-6.792c-4.702-0.522-9.404,1.567-12.539,4.702c-12.539,13.061-24.555,27.167-36.049,40.229
	c-14.106,16.196-28.735,32.392-43.886,48.065c-24.033,24.555-55.38,62.171-64.261,109.714c-5.747,31.869-1.045,65.306,12.539,94.563
	c25.078,53.29,82.024,91.429,141.061,94.041c2.612,0,4.702,0,7.314,0c56.947,0,112.327-31.869,140.016-80.98
	C372.922,246.676,364.563,170.398,315.975,120.766z M309.184,295.264c-22.988,41.273-71.053,67.396-118.596,65.306
	c-48.065-2.612-94.041-33.437-114.416-76.8c-10.971-23.51-14.629-50.155-10.449-75.755c5.747-29.78,22.988-59.559,54.857-92.996
	c15.673-15.673,30.302-32.914,44.931-49.11c6.792-7.837,14.106-16.196,21.42-24.033c10.449,20.898,19.331,52.767,0,84.637
	c-4.18,6.792-7.314,13.061-10.449,19.853c-1.045,2.612-2.09,4.702-3.657,7.314c0,0,0,0.522-0.522,0.522
	c-9.404,21.42-8.359,46.498,3.657,66.351c14.106,23.51,40.229,35.527,68.441,30.824c28.212-4.702,50.155-25.078,55.38-51.2
	c1.567-5.224,1.567-11.494,1.045-18.286c-1.045-11.494-1.045-22.988-1.567-32.914C332.694,188.162,336.873,246.153,309.184,295.264z
	"/>
<g>
</g>
<g>
</g>
<g>
</g>
<g>
</g>
<g>
</g>
<g>
</g>
<g>
</g>
<g>
</g>
<g>
</g>
<g>
</g>
<g>
</g>
<g>
</g>
<g>
</g>
<g>
</g>
<g>
</g>
</svg>
