<?xml version="1.0" encoding="iso-8859-1"?>
<!-- Generator: Adobe Illustrator 19.0.0, SVG Export Plug-In . SVG Version: 6.00 Build 0)  -->
<svg version="1.1" id="Capa_1" xmlns="http://www.w3.org/2000/svg" xmlns:xlink="http://www.w3.org/1999/xlink" x="0px" y="0px"
	 viewBox="0 0 491.102 491.102" style="enable-background:new 0 0 491.102 491.102;" xml:space="preserve">
<linearGradient id="SVGID_1_" gradientUnits="userSpaceOnUse" x1="-0.8615" y1="609.9456" x2="-0.8615" y2="515.9456" gradientTransform="matrix(5.2245 0 0 -5.2245 250.0519 3186.6543)">
	<stop  offset="0" style="stop-color:#00EFD1"/>
	<stop  offset="1" style="stop-color:#00ACEA"/>
</linearGradient>
<path style="fill:url(#SVGID_1_);" d="M317.384,115.984V78.367h21.943c8.882,0,15.673-6.792,15.673-15.673v-47.02
	C355.001,6.792,348.209,0,339.327,0H151.768c-8.882,0-15.673,6.792-15.673,15.673v47.02c0,8.882,6.792,15.673,15.673,15.673h21.943
	v37.616c-38.139,4.18-67.918,36.571-67.918,75.755v174.498c0,29.257,16.196,54.335,40.229,67.396v41.796
	c0,8.882,6.792,15.673,15.673,15.673h167.184c8.882,0,15.673-6.792,15.673-15.673v-41.796
	c24.033-12.539,40.229-37.616,40.751-67.396V191.739C385.825,152.555,355.001,119.641,317.384,115.984z M167.442,31.347h155.69
	V47.02h-155.69V31.347z M286.038,78.367v37.094h-24.555V92.473h-31.347v22.988H205.58V78.367H286.038z M313.205,459.755H177.368
	v-17.241c1.567,0,3.135,0,4.702,0h125.91c1.567,0,3.135,0,4.702,0L313.205,459.755L313.205,459.755z M354.478,366.237
	c-0.522,25.078-20.376,44.931-45.453,44.931H182.07c-24.555,0-44.931-20.376-44.931-44.931V191.739
	c0-24.555,20.376-44.931,44.931-44.931h126.955c24.555,0,44.931,20.376,44.931,44.931v174.498H354.478z"/>
<linearGradient id="SVGID_2_" gradientUnits="userSpaceOnUse" x1="-0.9121" y1="572.5455" x2="-0.9121" y2="539.8455" gradientTransform="matrix(5.2245 0 0 -5.2245 250.0519 3186.6543)">
	<stop  offset="0" style="stop-color:#00EFD1"/>
	<stop  offset="1" style="stop-color:#00ACEA"/>
</linearGradient>
<path style="fill:url(#SVGID_2_);" d="M245.287,195.396C244.764,195.396,244.764,195.396,245.287,195.396
	c-4.18,0-8.359,1.567-11.494,4.702c-9.404,9.927-57.469,61.649-57.469,96.131c0,38.661,30.825,70.008,68.963,70.008
	s68.963-31.347,68.963-70.008c0-35.004-48.065-86.204-57.469-96.131C253.123,196.963,249.989,195.396,245.287,195.396z
	 M245.287,234.58c16.718,19.331,35.527,45.453,37.616,59.559c-7.837-13.584-22.465-25.078-28.212-29.257
	c-5.224-3.657-12.539-3.657-18.286,0c-5.747,4.18-20.376,15.151-28.212,29.257C210.282,280.033,228.568,253.91,245.287,234.58z
	 M245.287,322.873c-6.269,0-11.494-5.224-11.494-10.971c0.522-2.612,5.224-8.359,11.494-14.106
	c5.747,5.747,10.971,10.971,11.494,14.106C256.258,317.649,251.033,322.873,245.287,322.873z"/>
<g>
</g>
<g>
</g>
<g>
</g>
<g>
</g>
<g>
</g>
<g>
</g>
<g>
</g>
<g>
</g>
<g>
</g>
<g>
</g>
<g>
</g>
<g>
</g>
<g>
</g>
<g>
</g>
<g>
</g>
</svg>
