<svg height="502pt" viewBox="-83 0 502 502.01038" width="502pt" xmlns="http://www.w3.org/2000/svg"><path d="m327.695312 134.566406v280.558594c0 20.988281-17.011718 38-38 38h-243.378906c-20.988281 0-38-17.011719-38-38v-280.558594c.003906-20.984375 17.015625-37.996094 38-38h243.378906c20.984376.003906 37.996094 17.015625 38 38zm-159.691406 241.039063c37.53125 0 68.140625-30.96875 68.140625-69.230469 0-38.257812-68.140625-108.21875-68.140625-108.21875s-68.140625 69.960938-68.140625 108.21875c0 38.261719 30.613281 69.230469 68.140625 69.230469zm0 0" fill="#00efd1"/><path d="m273.003906 7.625v88.941406h-39.378906v-47.179687h-131.238281v47.179687h-39.382813v-88.941406zm0 0" fill="#00acea"/><path d="m69.503906 453.125h197v41.261719h-197zm0 0" fill="#00acea"/><path d="m236.144531 306.375c0 38.261719-30.609375 69.230469-68.140625 69.230469-37.527344 0-68.140625-30.96875-68.140625-69.230469 0-38.257812 68.140625-108.21875 68.140625-108.21875s68.140625 69.960938 68.140625 108.21875zm-68.148437 67.042969c26.164062 0 47.375-21.207031 47.378906-47.371094 0-26.230469-47.371094-59.75-47.371094-59.75s-47.367187 33.519531-47.367187 59.75c0 26.15625 21.203125 47.359375 47.359375 47.371094zm0 0" fill="#fedb41"/><path d="m215.375 326.046875c0 26.160156-21.207031 47.371094-47.371094 47.371094-26.160156 0-47.367187-21.210938-47.367187-47.371094 0-26.230469 47.367187-59.75 47.367187-59.75s47.371094 33.519531 47.371094 59.75zm0 0" fill="#00acea"/><path d="m147.414062 74.976562h41.179688v21.589844h-41.179688zm0 0" fill="#00efd1"/><g fill="#083863"><path d="m289.695312 89.007812h-8.691406v-81.382812c-.015625-2.082031-.875-4.066406-2.382812-5.503906-1.507813-1.4375-3.535156-2.199219-5.617188-2.1132815h-210c-2.078125-.0859375-4.105468.6757815-5.613281 2.1132815s-2.371094 3.421875-2.386719 5.503906v81.382812h-8.6875c-25.363281 0-46.31249975 20.199219-46.31249975 45.558594v280.558594c0 25.367188 20.94921875 45.882812 46.31249975 45.882812h14.6875v33.378907c0 4.417969 4.082032 7.621093 8.5 7.621093h197c2.03125.066407 3.996094-.71875 5.421875-2.167968 1.425781-1.445313 2.179688-3.425782 2.078125-5.453125v-33.378907h15.691406c25.363282 0 46.308594-20.515624 46.308594-45.882812v-280.558594c0-25.359375-20.945312-45.558594-46.308594-45.558594zm-218.691406-73h194v73h-23v-39.621093c-.144531-4.566407-3.8125-8.234375-8.378906-8.378907h-131.238281c-4.566407.144532-8.234375 3.8125-8.382813 8.378907v39.621093h-23zm110 73h-26v-6h26zm7.589844-22h-41.179688c-4.417968 0-8.410156 3.550782-8.410156 7.96875v14.03125h-29v-32h116v32h-29v-14.03125c0-4.417968-3.992187-7.96875-8.410156-7.96875zm69.410156 419h-181v-25h181zm61-70c0 16.566407-13.429687 30-30 30h-243c-16.566406 0-30-13.433593-30-30v-281c0-16.570312 13.433594-30 30-30h243c16.570313 0 30 13.429688 30 30zm0 0"/><path d="m173.734375 192.574219c-1.503906-1.546875-3.570313-2.417969-5.730469-2.417969-2.15625 0-4.222656.871094-5.730468 2.417969-12.28125 12.863281-23.859376 26.378906-34.691407 40.484375-23.699219 30.984375-35.71875 55.652344-35.71875 73.316406 0 42.585938 34.15625 77.230469 76.140625 77.230469s76.140625-34.644531 76.140625-77.230469c0-17.664062-12.015625-42.332031-35.714843-73.316406-10.832032-14.105469-22.414063-27.621094-34.695313-40.484375zm-5.734375 172.84375c-21.730469-.035157-39.335938-17.644531-39.363281-39.371094 0-14.664063 22.507812-36.882813 39.367187-49.808594 16.859375 12.929688 39.371094 35.144531 39.371094 49.808594-.027344 21.734375-17.640625 39.347656-39.375 39.371094zm55.160156-34.667969c.132813-1.550781.214844-3.117188.214844-4.699219 0-13.101562-8.773438-28.378906-26.074219-45.414062-7.707031-7.542969-15.953125-14.519531-24.675781-20.867188-2.769531-1.957031-6.472656-1.957031-9.242188 0-8.722656 6.347657-16.96875 13.320313-24.675781 20.863281-17.300781 17.035157-26.074219 32.3125-26.074219 45.414063 0 1.585937.082032 3.152344.214844 4.699219-3.296875-7.703125-4.992187-15.996094-4.984375-24.375 0-26.054688 39.214844-73.910156 60.140625-96.578125 20.925782 22.660156 60.136719 70.5 60.136719 96.578125.011719 8.382812-1.683594 16.675781-4.980469 24.378906zm0 0"/></g></svg>