<?xml version="1.0" encoding="iso-8859-1"?>
<!-- Generator: Adobe Illustrator 19.0.0, SVG Export Plug-In . SVG Version: 6.00 Build 0)  -->
<svg version="1.1" id="Capa_1" xmlns="http://www.w3.org/2000/svg" xmlns:xlink="http://www.w3.org/1999/xlink" x="0px" y="0px"
	 viewBox="0 0 499.461 499.461" style="enable-background:new 0 0 499.461 499.461;" xml:space="preserve">
<g>
	
		<linearGradient id="SVGID_1_" gradientUnits="userSpaceOnUse" x1="3.1595" y1="614.6252" x2="3.1595" y2="521.3752" gradientTransform="matrix(5.2245 0 0 -5.2245 233.485 3212.6702)">
		<stop  offset="0" style="stop-color:#00EFD1"/>
		<stop  offset="1" style="stop-color:#00ACEA"/>
	</linearGradient>
	<path style="fill:url(#SVGID_1_);" d="M351.608,5.225H148.376c-26.122,0-47.02,20.898-47.02,47.02v394.971
		c0,26.122,20.898,47.02,47.02,47.02h202.71c26.122,0,47.02-20.898,47.543-47.543V52.245
		C398.629,26.122,377.731,5.225,351.608,5.225z M367.282,446.171c-0.522,9.404-7.314,16.718-16.196,16.718h-202.71
		c-8.882,0-15.673-6.792-15.673-15.673v-38.661h234.58V446.171z M367.282,377.208h-234.58V114.939h234.58V377.208z M367.282,83.592
		h-234.58V52.245c0-8.882,6.792-15.673,15.673-15.673h203.233c8.882,0,15.673,6.792,15.673,15.673V83.592z"/>
	
		<linearGradient id="SVGID_2_" gradientUnits="userSpaceOnUse" x1="3.166" y1="614.6252" x2="3.166" y2="521.3752" gradientTransform="matrix(5.2245 0 0 -5.2245 233.485 3212.6702)">
		<stop  offset="0" style="stop-color:#00EFD1"/>
		<stop  offset="1" style="stop-color:#00ACEA"/>
	</linearGradient>
	<path style="fill:url(#SVGID_2_);" d="M228.833,275.853c3.135,3.135,7.314,4.702,10.971,4.702s7.837-1.567,10.971-4.18
		l42.318-40.229c6.269-5.747,6.269-15.673,0.522-21.943s-15.673-6.269-21.943-0.522l-31.347,29.78l-11.494-12.016
		c-6.269-6.269-16.196-6.269-21.943,0c-6.269,6.269-6.269,16.196,0,21.943L228.833,275.853z"/>
	
		<linearGradient id="SVGID_3_" gradientUnits="userSpaceOnUse" x1="3.1095" y1="614.6252" x2="3.1095" y2="521.3752" gradientTransform="matrix(5.2245 0 0 -5.2245 233.485 3212.6702)">
		<stop  offset="0" style="stop-color:#00EFD1"/>
		<stop  offset="1" style="stop-color:#00ACEA"/>
	</linearGradient>
	<path style="fill:url(#SVGID_3_);" d="M249.731,348.996c57.469,0,104.49-47.02,104.49-104.49s-47.02-104.49-104.49-104.49
		s-104.49,47.02-104.49,104.49S192.261,348.996,249.731,348.996z M249.731,171.363c40.229,0,73.143,32.914,73.143,73.143
		s-32.914,73.143-73.143,73.143s-73.143-32.914-73.143-73.143S209.502,171.363,249.731,171.363z"/>
	
		<linearGradient id="SVGID_4_" gradientUnits="userSpaceOnUse" x1="-37.7905" y1="614.6252" x2="-37.7905" y2="521.3752" gradientTransform="matrix(5.2245 0 0 -5.2245 233.485 3212.6702)">
		<stop  offset="0" style="stop-color:#00EFD1"/>
		<stop  offset="1" style="stop-color:#00ACEA"/>
	</linearGradient>
	<path style="fill:url(#SVGID_4_);" d="M56.424,265.404c8.882,0,15.673-6.792,15.673-15.673c0-8.882-6.792-15.673-15.673-15.673
		H15.673C6.792,234.057,0,240.849,0,249.731c0,8.882,6.792,15.673,15.673,15.673H56.424z"/>
	
		<linearGradient id="SVGID_5_" gradientUnits="userSpaceOnUse" x1="-35.9094" y1="614.6252" x2="-35.9094" y2="521.3752" gradientTransform="matrix(5.2245 0 0 -5.2245 233.485 3212.6702)">
		<stop  offset="0" style="stop-color:#00EFD1"/>
		<stop  offset="1" style="stop-color:#00ACEA"/>
	</linearGradient>
	<path style="fill:url(#SVGID_5_);" d="M73.143,169.273l-40.751-20.376c-7.837-3.657-17.241-0.522-20.898,6.792
		c-3.657,7.837-0.522,17.241,6.792,20.898l40.751,20.376c2.09,1.045,4.702,1.567,6.792,1.567c5.747,0,11.494-3.135,14.106-8.882
		C84.114,182.857,80.98,173.453,73.143,169.273z"/>
	
		<linearGradient id="SVGID_6_" gradientUnits="userSpaceOnUse" x1="-35.8905" y1="614.6252" x2="-35.8905" y2="521.3752" gradientTransform="matrix(5.2245 0 0 -5.2245 233.485 3212.6702)">
		<stop  offset="0" style="stop-color:#00EFD1"/>
		<stop  offset="1" style="stop-color:#00ACEA"/>
	</linearGradient>
	<path style="fill:url(#SVGID_6_);" d="M59.559,301.976l-40.751,20.376c-7.837,3.657-10.971,13.061-6.792,20.898
		c2.09,5.747,7.837,8.882,13.584,8.882c2.612,0,4.702-0.522,6.792-1.567l40.751-20.376c7.837-3.657,10.971-13.061,6.792-20.898
		C76.278,301.453,66.873,298.318,59.559,301.976z"/>
	
		<linearGradient id="SVGID_7_" gradientUnits="userSpaceOnUse" x1="44.0095" y1="614.6252" x2="44.0095" y2="521.3752" gradientTransform="matrix(5.2245 0 0 -5.2245 233.485 3212.6702)">
		<stop  offset="0" style="stop-color:#00EFD1"/>
		<stop  offset="1" style="stop-color:#00ACEA"/>
	</linearGradient>
	<path style="fill:url(#SVGID_7_);" d="M483.788,234.057h-40.751c-8.882,0-15.673,6.792-15.673,15.673
		c0,8.882,6.792,15.673,15.673,15.673h40.751c8.882,0,15.673-6.792,15.673-15.673C499.461,240.849,492.669,234.057,483.788,234.057z
		"/>
	
		<linearGradient id="SVGID_8_" gradientUnits="userSpaceOnUse" x1="42.0595" y1="614.6252" x2="42.0595" y2="521.3752" gradientTransform="matrix(5.2245 0 0 -5.2245 233.485 3212.6702)">
		<stop  offset="0" style="stop-color:#00EFD1"/>
		<stop  offset="1" style="stop-color:#00ACEA"/>
	</linearGradient>
	<path style="fill:url(#SVGID_8_);" d="M433.11,199.053c2.612,0,4.702-0.522,6.792-1.567l40.751-20.376
		c7.837-3.657,10.971-13.061,6.792-20.898c-3.657-7.837-13.061-10.971-20.898-6.792l-40.751,20.376
		c-7.837,3.657-10.971,13.061-6.792,20.898C421.616,195.918,427.363,199.053,433.11,199.053z"/>
	
		<linearGradient id="SVGID_9_" gradientUnits="userSpaceOnUse" x1="42.0906" y1="614.6252" x2="42.0906" y2="521.3752" gradientTransform="matrix(5.2245 0 0 -5.2245 233.485 3212.6702)">
		<stop  offset="0" style="stop-color:#00EFD1"/>
		<stop  offset="1" style="stop-color:#00ACEA"/>
	</linearGradient>
	<path style="fill:url(#SVGID_9_);" d="M480.653,322.351l-40.751-20.376c-7.837-3.657-17.241-0.522-20.898,6.792
		c-3.657,7.314-0.522,17.241,6.792,20.898l40.751,20.376c2.09,1.045,4.702,1.567,6.792,1.567c5.747,0,11.494-3.135,14.106-8.882
		C491.625,335.935,488.49,326.531,480.653,322.351z"/>
</g>
<g>
</g>
<g>
</g>
<g>
</g>
<g>
</g>
<g>
</g>
<g>
</g>
<g>
</g>
<g>
</g>
<g>
</g>
<g>
</g>
<g>
</g>
<g>
</g>
<g>
</g>
<g>
</g>
<g>
</g>
</svg>
