<svg height="419pt" viewBox="0 0 419.09088 419" width="419pt" xmlns="http://www.w3.org/2000/svg" xmlns:xlink="http://www.w3.org/1999/xlink"><linearGradient id="a"><stop offset="0" stop-color="#00efd1"/><stop offset="1" stop-color="#00acea"/></linearGradient><linearGradient id="b" gradientTransform="matrix(1 0 0 -1 -46.433973 467.42044)" gradientUnits="userSpaceOnUse" x1="204.5" x2="204.5" xlink:href="#a" y1="495.289" y2="13.659"/><linearGradient id="c" gradientTransform="matrix(1 0 0 -1 -46.433973 467.42044)" gradientUnits="userSpaceOnUse" x1="290.9" x2="290.9" xlink:href="#a" y1="495.289" y2="13.659"/><linearGradient id="d" gradientTransform="matrix(1 0 0 -1 -46.433973 467.42044)" gradientUnits="userSpaceOnUse" x1="233.539" x2="233.539" xlink:href="#a" y1="495.289" y2="13.659"/><linearGradient id="e" gradientTransform="matrix(1 0 0 -1 -46.433973 467.42044)" gradientUnits="userSpaceOnUse" x1="255.963" x2="255.963" xlink:href="#a" y1="495.289" y2="13.659"/><path d="m158.066406 235.921875c-14.636718 0-26.5 11.863281-26.5 26.5 0 14.632813 11.863282 26.5 26.5 26.5 14.636719 0 26.5-11.867187 26.5-26.5-.027344-14.625-11.875-26.476563-26.5-26.5zm0 33c-3.589844 0-6.5-2.910156-6.5-6.5s2.910156-6.5 6.5-6.5 6.5 2.910156 6.5 6.5c.003906 1.722656-.679687 3.378906-1.898437 4.597656-1.222657 1.21875-2.878907 1.90625-4.601563 1.902344zm0 0" fill="url(#b)"/><path d="m244.464844 235.921875c-14.632813 0-26.5 11.863281-26.5 26.5 0 14.632813 11.867187 26.5 26.5 26.5 14.636718 0 26.5-11.867187 26.5-26.5-.023438-14.625-11.875-26.476563-26.5-26.5zm0 33c-3.589844 0-6.5-2.910156-6.5-6.5s2.910156-6.5 6.5-6.5 6.5 2.910156 6.5 6.5c.003906 1.722656-.679688 3.378906-1.898438 4.597656s-2.875 1.90625-4.601562 1.902344zm0 0" fill="url(#c)"/><path d="m272.367188 122.71875h-131.800782l-2.101562-12.699219c-2.441406-14.535156-15.058594-25.164062-29.796875-25.097656h-6.902344c-5.523437 0-10 4.476563-10 10 0 5.519531 4.476563 10 10 10h6.902344c4.976562.015625 9.230469 3.59375 10.097656 8.5l16.199219 95.5c2.445312 14.535156 15.058594 25.164063 29.800781 25.097656h92.199219c5.523437 0 10-4.476562 10-10 0-5.523437-4.476563-10-10-10h-92.199219c-4.980469-.015625-9.234375-3.59375-10.097656-8.5l-.101563-.800781h83.5c13.179688.015625 24.839844-8.527344 28.800782-21.097656l15.097656-47.902344c.980468-3.03125.421875-6.355469-1.5-8.898438-1.917969-2.550781-4.910156-4.0625-8.097656-4.101562zm-24.601563 54.902344c-1.3125 4.246094-5.253906 7.128906-9.699219 7.097656h-86.898437l-7.101563-42h114.699219zm0 0" fill="url(#d)"/><path d="m326.167969 311.921875c66.441406-73.933594 63.410156-186.9375-6.902344-257.203125-72.898437-72.898438-191.5-72.898438-264.5 0-71.648437 71.652344-73.191406 187.332031-3.476563 260.867188 69.710938 73.53125 185.308594 78.160156 260.675782 10.433593l90 90c1.875 1.890625 4.4375 2.9375 7.101562 2.902344 2.652344-.011719 5.199219-1.050781 7.101563-2.902344 1.871093-1.867187 2.921875-4.402343 2.921875-7.050781 0-2.644531-1.050782-5.179688-2.921875-7.046875zm-139.101563 42c-79.644531-.023437-148.1875-56.300781-163.710937-134.417969-15.519531-78.117187 26.296875-156.324218 99.886719-186.792968 73.585937-30.46875 158.449218-4.71875 202.691406 61.507812 44.246094 66.226562 35.550781 154.484375-20.765625 210.800781-31.277344 31.390625-73.789063 48.996094-118.101563 48.902344zm0 0" fill="url(#e)"/></svg>