<?xml version="1.0" encoding="utf-8"?>
<!-- Generator: Adobe Illustrator 19.0.0, SVG Export Plug-In . SVG Version: 6.00 Build 0)  -->
<svg xmlns="http://www.w3.org/2000/svg" xmlns:xlink="http://www.w3.org/1999/xlink" version="1.1" id="Layer_1" x="0px" y="0px" viewBox="0 2 98 98" style="enable-background:new 0 2 98 98;" xml:space="preserve" width="512" height="512">
<style type="text/css">
	.st0{fill:url(#SVGID_1_);}
	.st1{fill:url(#SVGID_2_);}
</style>
<g>
	
		<linearGradient id="SVGID_1_" gradientUnits="userSpaceOnUse" x1="48.9554" y1="95.3333" x2="48.9554" y2="-0.3357" gradientTransform="matrix(1 0 0 -1 0 104)">
		<stop offset="0" style="stop-color:#00EFD1"/>
		<stop offset="1" style="stop-color:#00ACEA"/>
	</linearGradient>
	<path class="st0" d="M89.2,53.2L70.2,43c-0.9-0.5-2-0.5-2.9,0L57,48.7c-2.1-1.5-4.3-2.8-6.7-3.8c5.3-3.7,8.8-9.9,8.8-16.9   c0-11.4-9.2-20.6-20.6-20.6S18,16.7,18,28.1c0,7,3.5,13.2,8.8,16.9C15.3,49.7,7.2,61,7.2,74.1V89c0,1.7,1.3,3,3,3h46.7   c2.3,2.1,5,3.9,8.1,5.2l2.5,1.1c0.4,0.2,0.8,0.3,1.2,0.3c0.4,0,0.8-0.1,1.1-0.2l2.9-1.2l0,0c11-4.6,18-15.2,18-27.1V55.8   C90.8,54.7,90.2,53.7,89.2,53.2z M24,28.1c0-8.1,6.5-14.6,14.6-14.6S53.2,20,53.2,28.1s-6.5,14.6-14.6,14.6S24,36.1,24,28.1z    M13.2,74.1c0-14,11.4-25.4,25.4-25.4c4.5,0,8.8,1.1,12.5,3.3l-2.3,1.3c-1,0.5-1.6,1.5-1.6,2.6v14.4c0,5.7,1.7,11.1,4.6,15.7H13.2   V74.1z M84.8,70.1c0,9.4-5.6,17.9-14.4,21.5l-1.7,0.7l-1.3-0.6C58.8,88,53.3,79.5,53.3,70.3V57.6L68.8,49l16,8.6V70.1z"/>
	
		<linearGradient id="SVGID_2_" gradientUnits="userSpaceOnUse" x1="69.4289" y1="95.3333" x2="69.4289" y2="-0.3357" gradientTransform="matrix(1 0 0 -1 0 104)">
		<stop offset="0" style="stop-color:#00EFD1"/>
		<stop offset="1" style="stop-color:#00ACEA"/>
	</linearGradient>
	<path class="st1" d="M63.4,68.3c-1.1-1.3-3-1.4-4.2-0.3c-1.3,1.1-1.4,3-0.3,4.2l5,5.9c0.6,0.7,1.4,1.1,2.3,1.1   c0.7,0,1.3-0.2,1.9-0.7L79.6,69c1.3-1,1.5-2.9,0.4-4.2c-1.1-1.3-2.9-1.5-4.2-0.4L66.5,72L63.4,68.3z"/>
</g>

</svg>
