<?xml version="1.0" encoding="utf-8"?>
<!-- Generator: Adobe Illustrator 19.0.0, SVG Export Plug-In . SVG Version: 6.00 Build 0)  -->
<svg xmlns="http://www.w3.org/2000/svg" xmlns:xlink="http://www.w3.org/1999/xlink" version="1.1" id="Layer_1" x="0px" y="0px" viewBox="0 2 98 98" style="enable-background:new 0 2 98 98;" xml:space="preserve" width="512" height="512">
<style type="text/css">
	.st0{fill:url(#SVGID_1_);}
	.st1{fill:url(#SVGID_2_);}
	.st2{fill:url(#SVGID_3_);}
	.st3{fill:url(#SVGID_4_);}
</style>
<g>
	<linearGradient id="SVGID_1_" gradientUnits="userSpaceOnUse" x1="49" y1="10.5" x2="49" y2="95.1788">
		<stop offset="0" style="stop-color:#00EFD1"/>
		<stop offset="1" style="stop-color:#00ACEA"/>
	</linearGradient>
	<path class="st0" d="M79.1,36L55.6,13.8C55,13.3,54.3,13,53.5,13H21c-1.7,0-3,1.3-3,3v74c0,1.7,1.3,3,3,3h56c1.7,0,3-1.3,3-3V38.2   C80,37.4,79.7,36.6,79.1,36z M56,22.5L70.3,36H56V22.5z M74,87H24V19h26v20c0,1.7,1.3,3,3,3h21V87z"/>
	<linearGradient id="SVGID_2_" gradientUnits="userSpaceOnUse" x1="48.5" y1="10.5" x2="48.5" y2="95.1788">
		<stop offset="0" style="stop-color:#00EFD1"/>
		<stop offset="1" style="stop-color:#00ACEA"/>
	</linearGradient>
	<path class="st1" d="M31,65c0,1.7,1.3,3,3,3h29c1.7,0,3-1.3,3-3s-1.3-3-3-3H34C32.3,62,31,63.3,31,65z"/>
	<linearGradient id="SVGID_3_" gradientUnits="userSpaceOnUse" x1="42.5" y1="10.5" x2="42.5" y2="95.1788">
		<stop offset="0" style="stop-color:#00EFD1"/>
		<stop offset="1" style="stop-color:#00ACEA"/>
	</linearGradient>
	<path class="st2" d="M34,50c-1.7,0-3,1.3-3,3s1.3,3,3,3h17c1.7,0,3-1.3,3-3s-1.3-3-3-3H34z"/>
	<linearGradient id="SVGID_4_" gradientUnits="userSpaceOnUse" x1="48.5" y1="10.5" x2="48.5" y2="95.1788">
		<stop offset="0" style="stop-color:#00EFD1"/>
		<stop offset="1" style="stop-color:#00ACEA"/>
	</linearGradient>
	<path class="st3" d="M63,74H34c-1.7,0-3,1.3-3,3s1.3,3,3,3h29c1.7,0,3-1.3,3-3S64.7,74,63,74z"/>
</g>
</svg>
