<?xml version="1.0" encoding="iso-8859-1"?>
<!-- Generator: Adobe Illustrator 19.0.0, SVG Export Plug-In . SVG Version: 6.00 Build 0)  -->
<svg version="1.1" id="Capa_1" xmlns="http://www.w3.org/2000/svg" xmlns:xlink="http://www.w3.org/1999/xlink" x="0px" y="0px"
	 viewBox="0 0 446.049 446.049" style="enable-background:new 0 0 446.049 446.049;" xml:space="preserve">
<g>
	
		<linearGradient id="SVGID_1_" gradientUnits="userSpaceOnUse" x1="-36.6354" y1="570.7202" x2="-36.6354" y2="487.6602" gradientTransform="matrix(5.2245 0 0 -5.2245 346.0461 2981.3997)">
		<stop  offset="0" style="stop-color:#00EFD1"/>
		<stop  offset="1" style="stop-color:#00ACEA"/>
	</linearGradient>
	<path style="fill:url(#SVGID_1_);" d="M154.645,326.47c-30.302,0-54.857,24.555-54.857,54.857
		c0,30.302,24.555,54.857,54.857,54.857s54.857-25.078,54.857-55.38C209.502,350.502,184.947,326.47,154.645,326.47z
		 M154.645,404.837c-13.061,0-23.51-10.449-23.51-23.51c0-13.061,10.449-23.51,23.51-23.51c13.061,0,23.51,10.449,23.51,23.51
		C178.155,394.388,167.706,404.837,154.645,404.837z"/>
	
		<linearGradient id="SVGID_2_" gradientUnits="userSpaceOnUse" x1="-3.0354" y1="570.7202" x2="-3.0354" y2="487.6602" gradientTransform="matrix(5.2245 0 0 -5.2245 346.0461 2981.3997)">
		<stop  offset="0" style="stop-color:#00EFD1"/>
		<stop  offset="1" style="stop-color:#00ACEA"/>
	</linearGradient>
	<path style="fill:url(#SVGID_2_);" d="M330.188,326.47c-30.302,0-54.857,24.555-54.857,54.857
		c0,30.302,24.555,54.857,54.857,54.857c30.302,0,54.857-25.078,54.857-55.38C385.045,350.502,360.49,326.47,330.188,326.47z
		 M330.188,404.837c-13.061,0-23.51-10.449-23.51-23.51c0-13.061,10.449-23.51,23.51-23.51s23.51,10.449,23.51,23.51
		C353.698,394.388,343.249,404.837,330.188,404.837z"/>
	
		<linearGradient id="SVGID_3_" gradientUnits="userSpaceOnUse" x1="-23.5471" y1="570.7202" x2="-23.5471" y2="487.6602" gradientTransform="matrix(5.2245 0 0 -5.2245 346.0461 2981.3997)">
		<stop  offset="0" style="stop-color:#00EFD1"/>
		<stop  offset="1" style="stop-color:#00ACEA"/>
	</linearGradient>
	<path style="fill:url(#SVGID_3_);" d="M443.037,117.49c-3.135-3.657-7.314-6.269-12.539-6.269h-61.649
		C361.535,54.274,312.947,9.865,253.91,9.865S146.286,54.274,138.971,111.221H91.429L76.278,41.212
		c-1.567-7.314-7.837-12.539-15.151-12.539H15.673C6.792,28.674,0,35.465,0,44.347s6.792,15.673,15.673,15.673h32.914l49.11,228.31
		c1.567,7.314,7.837,12.539,15.151,12.539h278.465c7.314,0,13.584-4.702,15.151-12.016l39.184-157.78
		C446.694,126.372,445.649,121.147,443.037,117.49z M253.91,41.212c46.498,0,84.637,38.139,84.637,84.637
		s-38.139,84.637-84.637,84.637s-84.637-38.139-84.637-84.637C169.273,79.351,207.412,41.212,253.91,41.212z M379.298,269h-253.91
		L98.22,142.568h40.751c8.359,55.902,56.424,99.265,114.939,99.265s106.58-43.363,114.939-99.265h41.796L379.298,269z"/>
	
		<linearGradient id="SVGID_4_" gradientUnits="userSpaceOnUse" x1="-17.6854" y1="570.7202" x2="-17.6854" y2="487.6602" gradientTransform="matrix(5.2245 0 0 -5.2245 346.0461 2981.3997)">
		<stop  offset="0" style="stop-color:#00EFD1"/>
		<stop  offset="1" style="stop-color:#00ACEA"/>
	</linearGradient>
	<path style="fill:url(#SVGID_4_);" d="M220.996,141.523h17.241v17.241c0,8.882,6.792,15.673,15.673,15.673
		c8.882,0,15.673-6.792,15.673-15.673v-17.241h16.718c8.882,0,15.673-6.792,15.673-15.673s-6.792-15.673-15.673-15.673h-16.718
		V92.935c0-8.882-6.792-15.673-15.673-15.673c-8.882,0-15.673,6.792-15.673,15.673v17.241h-17.241
		c-8.882,0-15.673,6.792-15.673,15.673S212.114,141.523,220.996,141.523z"/>
</g>
<g>
</g>
<g>
</g>
<g>
</g>
<g>
</g>
<g>
</g>
<g>
</g>
<g>
</g>
<g>
</g>
<g>
</g>
<g>
</g>
<g>
</g>
<g>
</g>
<g>
</g>
<g>
</g>
<g>
</g>
</svg>
